<?xml version="1.0" encoding="utf-8"?>
<!-- Generator: Adobe Illustrator 17.0.0, SVG Export Plug-In . SVG Version: 6.00 Build 0)  -->
<!DOCTYPE svg PUBLIC "-//W3C//DTD SVG 1.1//EN" "http://www.w3.org/Graphics/SVG/1.1/DTD/svg11.dtd">
<svg version="1.1" id="Ebene_2" xmlns="http://www.w3.org/2000/svg" xmlns:xlink="http://www.w3.org/1999/xlink" x="0px" y="0px"
	 width="647.043px" height="980.842px" viewBox="0 0 647.043 980.842" enable-background="new 0 0 647.043 980.842"
	 xml:space="preserve">
<path fill="#23373B" d="M0,319.571V0h646.968v380.963l-81.391,20.753L564.91,294.57c0,0,6.929,21.019,15.258,17.347
	c5.65-2.49-0.244,10.369-0.244,10.369s6.803,5.272,4.727,8.625c-2.723,4.399-3.021,12.411-0.57,20.94
	c2.451,8.529,5.375,9.354,0.927,23.61c-4.448,14.256,25.211,19.658,25.211,6.413s1.116-71.598,1.116-71.598
	c-7.583-3.971-40.044-20.557-46.426-20.557c-7.165,0-49.664,16.158-49.664,16.158l-1.612,108.568l-58.205,15.937l-0.462-69.754
	l-17.65-15.602l-2.676-26.897l-21.417-13.858c0,0,1.171-126.068,0-130.021c-1.171-3.954-77.171-76.12-80.005-78.954
	c-2.833-2.833-5.236-2.667-10.736,2.667c-4.179,4.053-75.089,71.332-75.089,71.332l-1.176,134.835l-11.833,9.5
	c0,0-6.223-0.146-7.528,2.344c-1.305,2.49-1.904,27.994-1.904,27.994l-17.068,16.329c0,0,0.415-33.799-0.161-44.323
	c-2.672-11.677,0.328-33.51-2.006-36.677c-2.333-3.167-29.708-15.666-32.833-17.167c-4.167-2-33.305-0.549-36.805,0.617
	c-3.5,1.167-27.568,17.325-27.568,17.325s-0.627,50.725,1.04,67.725c1.667,17-0.824,22.164-2.162,23.332
	C106.053,372.296,0,319.571,0,319.571z"/>
<path fill="#23373B" d="M135.386,571.463l1.375-255c0,0-8.246,73.863-6.371,80.613s-1.213,29.61-0.754,36.137
	c1.052,14.968-0.291,15.081-1,24.375c-0.626,8.21,2.083,11.789-0.125,17.25c-2.274,5.625-5.375,72.125-3.375,96.625H135.386z"/>
<path fill="#23373B" d="M153.386,571.463h19.5c0,0-3.041-77.653-3.146-86.773c-0.105-9.12,0.285-160.904,0.285-160.904l-1.71-47.744
	c0,0-4.418,25.511-3.705,32.352c0.713,6.841,1.425,1.71,2.423,8.694c0.998,6.983-0.766,110.974-2.565,120.001
	c-1.799,9.027-3.146,37.639-3.42,65.844c-0.176,18.095-2.423,27.934-0.57,39.905C162.908,558.552,153.386,571.463,153.386,571.463z"
	/>
<path fill="#23373B" d="M189.386,571.463c0,0,14.5-22.25,14.5-37s0-162.5,0-162.5s-6.971,14.956-7.25,21.5
	c-0.279,6.544-0.5,12.75-1,20s-4.25,14.25-7.25,34.5s0.75,24.074-2,43.037s-3,21.213,0,37.463S189.386,571.463,189.386,571.463z"/>
<path fill="#23373B" d="M210.636,571.463h14v-220.75l-3.5,2.75c0,0-0.75,63.5-1,98.5s2,45.75-0.5,50.75s-2,12.75-2,12.75
	s-0.75,9.5-1.25,21.5S210.636,571.463,210.636,571.463z"/>
<path fill="#23373B" d="M237.636,571.463h9l-0.5-159.5l-3.049-2.35c0,0,1.033,55.83,0.783,61.58s-0.496,15.702-1.735,20.997
	c-2.731,11.674,0.13,49.856-2.75,55.522c-2.88,5.666-2.488,8.957-2.566,13.814C236.741,566.385,237.636,571.463,237.636,571.463z"/>
<path fill="#23373B" d="M329.548,571.463l2.067-186.687c0,0,2.971,3.873,3.134,15.228c0.138,9.61,10.413,20.471,12.987,35.136
	c1.701,9.689,3.27,22.619,9.921,34.309c3.896,6.849,4.059,19.791,3.134,24.388c-0.926,4.597-0.534,4.942,0.471,9.127
	c0.895,3.726-1.539,5.921,0.917,10.343c2.5,4.5,3.708,2.407,9.119,11.532c6.178,10.417-1.161,4.875,10.747,20.255
	c2.683,3.465,0.716,6.995-0.159,13.495c-0.987,7.331,4.292,12.875,4.292,12.875H329.548z"/>
<path fill="#23373B" d="M410.136,571.463h12.75c0,0-0.333-14.333-1.5-19.5c-1.167-5.167-1.131-28.68-0.123-33.497
	c1.008-4.817-3.456-14.915-2.043-21.003c1.5-6.463,0.617-9.996-0.157-20.465c-0.514-6.954-1.176-26.785-1.176-26.785
	s0.174-60.33-1.375-59.75s-2.845-0.777-3.125,6.25c-0.28,7.027,1.609,79.375,0.109,99.375c-1.133,15.108-0.305,38.561,0.224,47.042
	C414.248,551.611,413.053,556.963,410.136,571.463z"/>
<path fill="#23373B" d="M433.886,571.463h8.667c0,0,0.83-23.497,0.485-28.465c-0.207-2.984-1.975-2.738-2.152-8.035
	c-0.177-5.296,1.791-5.284,2.496-12.617c1.045-10.876-0.595-20.663-0.163-28.716c0.385-7.173,0.724-17.405-1.667-22
	s-1-10.667-1-10.667l-1.667-45.333c0,0-3.739,22.062-3.074,46.508c0.922,33.942-0.563,72.925-0.079,78.369
	C437.096,555.856,433.886,571.463,433.886,571.463z"/>
<path fill="#23373B" d="M493.136,506.963l20.75,12.75c0,0,1.162,22.525,0.122,29.489c-0.192,1.288-16.942-4.054-20.372-14.135
	C491.663,529.264,493.136,506.963,493.136,506.963z"/>
<path fill="#23373B" d="M491.969,493.109c0,0-0.583-16.896,0.417-21.146s13.14-17.662,15.14-18.912s2.278,0.505,3.36-0.588
	c1.082-1.093,1.437-1.765,3.554-2.75s2.306,0.764,2.527,2.393c0.208,1.536-0.911,9.124-1.433,14.126
	c-0.684,6.551-0.995,12.596-1.094,18.63c-0.098,6.034,0,22.101,0,22.101L491.969,493.109z"/>
<text transform="matrix(1 0 0 1 1.5746 694.5274)"><tspan x="0" y="0" fill="#23373B" font-family="'FiraSans-Book'" font-size="115.2701" letter-spacing="-1">M</tspan><tspan x="89.564" y="0" fill="#23373B" font-family="'FiraSans-Book'" font-size="115.2701" letter-spacing="-1">ET</tspan><tspan x="205.986" y="0" fill="#23373B" font-family="'FiraSans-Book'" font-size="115.2701" letter-spacing="-2">R</tspan><tspan x="272.266" y="0" fill="#23373B" font-family="'FiraSans-Book'" font-size="115.2701" letter-spacing="-1">O</tspan><tspan x="350.071" y="0" fill="#23373B" font-family="'FiraSans-Book'" font-size="115.2701" letter-spacing="-1">P</tspan><tspan x="414.966" y="0" fill="#23373B" font-family="'FiraSans-Book'" font-size="115.2701" letter-spacing="-1">O</tspan><tspan x="492.772" y="0" fill="#23373B" font-family="'FiraSans-Book'" font-size="115.2701" letter-spacing="-1">L</tspan><tspan x="547.755" y="0" fill="#23373B" font-family="'FiraSans-Book'" font-size="115.2701" letter-spacing="-1">I</tspan><tspan x="579.569" y="0" fill="#23373B" font-family="'FiraSans-Book'" font-size="115.2701">S</tspan></text>
<path fill="#23373B" d="M467.856,571.463h-15.47c0,0,1.5-116.75,1-121s5.72-7,9.235-7c3.515,0,13.404,1.137,15.265,0
	c1.861-1.137,8-4.5,12-4.5s9.809,0.066,18.51-1c8.701-1.066,11.74-1.75,20.49-2s16.75,1.5,23.5,1s6-4.411,9-5.581
	c3-1.169,4,0.169,7-1c3-1.169,4.5-4.419,10-5.419s15.25-12,18.5-12s17.882-8.749,29.25-10.75s20.832-1.25,20.832-1.25v8.5
	c0,0-28.332-2-50.582,18s-10.533,22.111-5.641,34.805c1.708,4.434,1.104,6.665,0.975,9.861c-0.241,5.955-1.442,11.934-1.333,18.333
	c0.167,9.833-2.333,21.833-1,27.25c1.333,5.417-2.167,4.083-2.25,9.25c-0.083,5.167,4.813,9.018,4.5,16
	c-0.313,6.982-1.083,14.167-0.75,16.75c0.333,2.583,2.167,3.75,3.5,0s2.099-79.327,1.599-89.244s-1.266-29.339,8.567-37.173
	c8.597-6.848,13.167-10.333,20.333-13.333s9.784-0.764,8.5,4.5c-1.284,5.264-2.5,10.5-2.5,15.25s-0.167,8.583,0,14
	c0.167,5.417-1.201,5.083-1.25,8c-0.083,4.917,2.583,3.25,4.75,3s3.833,0.917,4.75,5.25c0.917,4.333,1.419,69.755,0.695,74.193
	c-0.65,3.982-0.32,7.964,0.301,11.532c0.62,3.568,1.444,2.858,1.505,6.276c0.083,4.667-1.75,9.5-1.75,9.5h-27c0,0-0.5-24.5-2.25-33
	c-0.875-4.25,0.135-15.996,0.417-30s-0.167-30.268-0.167-30.268l-0.333-30.066c0,0,0-17-1.917-14.917
	c-1.917,2.083-3.25,10.5-3.25,10.5s-1.667,8.417-2.25,16c-0.583,7.583,3.417,9.881,2.75,18.482s-4.667,7.934-3.5,19.268
	c1.167,11.333,2,23.5,2,28.25s2.119,3.736,2,8.5s-1,15.25-0.5,20s0.667,5.917,1,9.5c0.333,3.583-1,7.75-1,7.75h-25
	c0,0-0.5-94.667-0.5-98.75c0-4.083-1.833-6.083-3.25-1.25c-1.417,4.833,0.223,5.908-0.5,8.75c-0.723,2.842-0.583,7.083-3.5,13.75
	c-2.917,6.667-1.5,77.5-1.5,77.5h-84.5c0,0,2.327-5.621,2.898-11.534c0.617-6.39,0.617-7.39,1.602-13.466
	c0.35-2.159,6.083,13.333,14,18.5c5.897,3.849,11.913,6.012,22.249,5.767c10.775-0.255,21.565-5.545,22.501-8.267
	c1.833-5.333,1.5-106.833,0.25-111c-1.25-4.167-15.085-10.913-29.5-10.5c-23.25,0.667-43.435,20.019-43.682,33.173
	c-0.293,15.557-1.901,18.993-2.818,29.077c-0.917,10.083-6.78,14.417-6.78,26.5C467.856,541.796,467.856,571.463,467.856,571.463z"
	/>
<path fill="#23373B" d="M0,735c0,90.121,188.253,208.895,326.163,245.842C466.302,943.296,647.043,828.511,647.043,735H0z
	 M248.676,815.052h-15.014v47.763h-6.689v-47.763H211.57v-5.757h37.883L248.676,815.052z M293.091,862.815h-6.768v-25.359h-23.259
	v25.359h-6.69v-53.52h6.69v22.56h23.259v-22.56h6.768V862.815z M336.183,862.815H307.09v-53.52h28.549l-0.778,5.445H313.78v18.048
	h18.28v5.445h-18.28v19.136h22.403V862.815z M387.211,862.815l-2.023-24.504c-0.778-8.479-1.4-17.658-1.478-22.17l-12.058,40.528
	h-6.301l-12.602-40.605c-0.078,6.067-0.544,14.702-1.245,22.637l-1.867,24.114h-6.379l4.512-53.52h9.179l11.746,39.596
	l11.202-39.596h9.179l4.667,53.52H387.211z M435.203,862.815H406.11v-53.52h28.549l-0.778,5.445H412.8v18.048h18.281v5.445H412.8
	v19.136h22.403V862.815z"/>
</svg>
